<?xml version="1.0" standalone="no"?><!DOCTYPE svg PUBLIC "-//W3C//DTD SVG 1.1//EN" "http://www.w3.org/Graphics/SVG/1.1/DTD/svg11.dtd"><svg class="icon" width="200px" height="196.17px" viewBox="0 0 1044 1024" version="1.1" xmlns="http://www.w3.org/2000/svg"><path fill="#ffffff" d="M1011.97429 335.872c-26.624-34.816-65.536-57.344-108.544-63.488-24.576-4.096-51.2 0-73.728 8.192-10.24-137.216-126.976-245.76-266.24-245.76h-81.92c-139.264 0-256 108.544-266.24 247.808-24.576-8.192-49.152-10.24-73.728-8.192-43.008 6.144-81.92 28.672-108.544 63.488-53.248 71.68-40.96 172.032 28.672 227.328V921.6c0 57.344 45.056 102.4 102.4 102.4s102.4-45.056 102.4-102.4V819.2h512v102.4c0 57.344 45.056 102.4 102.4 102.4s102.4-45.056 102.4-102.4V563.2c69.632-55.296 81.92-155.648 28.672-227.328zM248.07129 301.056c0-129.024 104.448-233.472 233.472-233.472h81.92c129.024 0 233.472 104.448 233.472 233.472V573.44c-22.528-26.624-57.344-43.008-94.208-43.008h-358.4c-36.864 0-71.68 16.384-94.208 43.008V301.056z m540.672 356.352v30.72h-532.48v-30.72c0-47.104 38.912-88.064 88.064-88.064h358.4c47.104 2.048 86.016 40.96 86.016 88.064z m153.6-124.928V921.6c0 34.816-26.624 61.44-61.44 61.44s-61.44-26.624-61.44-61.44V778.24h-593.92V921.6c0 34.816-26.624 61.44-61.44 61.44s-61.44-26.624-61.44-61.44V532.48H88.32629c-53.248-40.96-61.44-116.736-22.528-169.984 20.48-26.624 49.152-43.008 81.92-47.104 22.528-4.096 47.104 0 67.584 10.24v389.12c0 8.192 8.192 16.384 16.384 16.384h581.632c8.192 0 16.384-8.192 16.384-16.384V323.584c20.48-10.24 45.056-14.336 67.584-10.24 32.768 4.096 61.44 20.48 81.92 47.104 40.96 53.248 30.72 129.024-22.528 169.984h-14.336z" /></svg>