<?xml version="1.0" standalone="no"?><!DOCTYPE svg PUBLIC "-//W3C//DTD SVG 1.1//EN" "http://www.w3.org/Graphics/SVG/1.1/DTD/svg11.dtd"><svg class="icon" width="200px" height="200.00px" viewBox="0 0 1024 1024" version="1.1" xmlns="http://www.w3.org/2000/svg"><path fill="#ffffff" d="M564.128 584.896c-7.744-19.968-27.328-34.24-50.24-34.24-22.592 0-41.952 13.824-49.92 33.376l-0.032 0-3.008 30.656c0.096 0.032 0.192 0.032 0.288 0.064 5.12 24.128 26.784 42.24 52.704 42.24 25.696 0 47.232-17.888 52.544-41.728 0.48-0.096 0.96-0.16 1.44-0.256L564.128 584.896C564.16 584.896 564.128 584.896 564.128 584.896zM513.888 626.432c-12.64 0-22.912-10.176-22.912-22.624 0-12.48 10.272-22.592 22.912-22.592 12.64 0 22.912 10.144 22.912 22.592C536.8 616.288 526.496 626.432 513.888 626.432zM835.104 741.28 835.104 741.28l-51.616-384.992c-0.96-7.648-7.552-13.376-15.36-13.376l-84.576 0c-7.84-84.928-80.288-151.616-168.256-151.616-87.968 0-160.416 66.688-168.256 151.616L262.528 342.912c-7.808 0-14.4 5.728-15.36 13.376L195.552 741.28l0 0c-0.16 1.6-0.224 3.232-0.224 4.832 0 29.344 24.16 53.184 53.856 53.184l532.32 0c29.696 0 53.856-23.84 53.856-53.184C835.328 744.512 835.232 742.88 835.104 741.28zM515.328 221.856c70.88 0 129.44 53.024 137.152 121.056l-274.336 0C385.888 274.88 444.448 221.856 515.328 221.856zM781.504 768.736 249.152 768.736c-12.64 0-22.88-10.144-22.88-22.624 0-1.152 0.128-2.272 0.288-3.424l34.336-246.368c29.824 37.984 68 68.352 110.912 89.44l9.856-29.248c-45.472-23.104-84.704-58.048-113.056-102.368l13.984-82.752 465.44 0 13.984 82.752c-27.68 43.296-65.888 77.792-110.112 101.056l10.24 29.056c41.568-20.992 78.496-50.784 107.648-87.904l34.336 246.368c0.16 1.152 0.288 2.272 0.288 3.424C804.384 758.592 794.144 768.736 781.504 768.736z" /></svg>