<?xml version="1.0" standalone="no"?><!DOCTYPE svg PUBLIC "-//W3C//DTD SVG 1.1//EN" "http://www.w3.org/Graphics/SVG/1.1/DTD/svg11.dtd"><svg class="icon" width="200px" height="200.00px" viewBox="0 0 1024 1024" version="1.1" xmlns="http://www.w3.org/2000/svg"><path fill="#ffffff" d="M968.919521 147.748019l-21.707394-21.707394-87.776136 87.776136-85.427648-85.427648-21.707394 21.707394 85.427648 85.427648L709.895139 363.356588c-53.738925-48.458665-124.899638-77.965699-202.958458-77.965699-74.106812 0-141.990898 26.601868-194.658422 70.758554L116.003014 159.874197l165.1739 0 0-30.699186-186.348152 0 0 0L64.00064 129.175011l0 36.902468 0 0 0 183.90552 30.699186 0 0-167.996179 195.062628 195.062628c-53.214992 54.626131-86.010933 129.241526-86.010933 211.527624 0 167.444617 135.740544 303.18516 303.18516 303.18516s303.18516-135.740544 303.18516-303.18516c0-78.340229-29.715789-149.738349-78.486562-203.544813l127.799688-127.799688 77.060073 77.060073 21.707394-21.707394-77.060073-77.060073L968.919521 147.748019zM779.423679 588.576049c0 36.799114-7.199982 72.480778-21.400403 106.054431-13.722536 32.443923-33.374108 61.587684-58.408271 86.621846-25.034163 25.034163-54.178947 44.685735-86.62287 58.408271-33.573653 14.20042-69.255317 21.400403-106.054431 21.400403-36.799114 0-72.480778-7.199982-106.054431-21.400403-32.443923-13.722536-61.587684-33.374108-86.621846-58.408271-25.034163-25.034163-44.685735-54.178947-58.408271-86.621846-14.20042-33.573653-21.400403-69.255317-21.400403-106.054431 0-36.799114 7.199982-72.480778 21.400403-106.054431 13.722536-32.443923 33.374108-61.587684 58.408271-86.62287 25.034163-25.034163 54.178947-44.685735 86.621846-58.408271 33.573653-14.20042 69.255317-21.400403 106.054431-21.400403 36.799114 0 72.480778 7.199982 106.054431 21.400403 32.443923 13.722536 61.587684 33.374108 86.62287 58.408271 25.034163 25.034163 44.685735 54.178947 58.408271 86.62287C772.222673 516.095271 779.423679 551.776935 779.423679 588.576049z" /></svg>