<?xml version="1.0" standalone="no"?><!DOCTYPE svg PUBLIC "-//W3C//DTD SVG 1.1//EN" "http://www.w3.org/Graphics/SVG/1.1/DTD/svg11.dtd"><svg class="icon" width="200px" height="200.00px" viewBox="0 0 1024 1024" version="1.1" xmlns="http://www.w3.org/2000/svg"><path fill="#ffffff" d="M896 256 682.666667 256c12.8-17.066667 21.333333-40.533333 21.333333-64 0-59.733333-46.933333-106.666667-106.666667-106.666667-34.133333 0-66.133333 17.066667-85.333333 42.666667-19.2-25.6-51.2-42.666667-85.333333-42.666667-59.733333 0-106.666667 46.933333-106.666667 106.666667 0 23.466667 8.533333 46.933333 21.333333 64L128 256c-23.466667 0-42.666667 19.2-42.666667 42.666667l0 170.666667 42.666667 0 0 384c0 23.466667 19.2 42.666667 42.666667 42.666667l320 0 42.666667 0 320 0c23.466667 0 42.666667-19.2 42.666667-42.666667L896 469.333333l42.666667 0 0-170.666667C938.666667 275.2 919.466667 256 896 256zM490.666667 853.333333 170.666667 853.333333 170.666667 469.333333l320 0L490.666667 853.333333zM490.666667 426.666667 128 426.666667l0-128 298.666667 0 64 0L490.666667 426.666667zM490.666667 256l-64 0c-36.266667 0-64-27.733333-64-64 0-36.266667 27.733333-64 64-64s64 27.733333 64 64L490.666667 256zM533.333333 192c0-36.266667 27.733333-64 64-64s64 27.733333 64 64c0 36.266667-27.733333 64-64 64l-64 0L533.333333 192zM853.333333 853.333333 533.333333 853.333333 533.333333 469.333333l320 0L853.333333 853.333333zM896 426.666667 533.333333 426.666667l0-128 64 0 298.666667 0L896 426.666667z" /></svg>