<?xml version="1.0" standalone="no"?><!DOCTYPE svg PUBLIC "-//W3C//DTD SVG 1.1//EN" "http://www.w3.org/Graphics/SVG/1.1/DTD/svg11.dtd"><svg class="icon" width="200px" height="200.00px" viewBox="0 0 1024 1024" version="1.1" xmlns="http://www.w3.org/2000/svg"><path fill="#ffffff" d="M892.06784 259.10784c-13.64992 15.29856-36.29056 34.84672-68.74112 64.55296-34.38592 34.36544-83.03104 34.36544-117.41184 0-34.40128-34.38592-34.40128-83.00032 0-117.36576 31.66208-31.64672 65.72544-69.19168 65.16224-69.33504-92.04224-42.4448-204.56448-26.04032-280.43776 49.77152C421.5296 255.81568 401.78688 355.32288 430.89408 442.07616l-292.5056 292.34688c-43.23328 43.20256-43.23328 113.26976 0 156.47744 43.23328 43.2128 113.3312 43.2128 156.55936 0l292.50048-292.34688c86.784 29.0816 186.33728 9.35424 255.4624-59.72992C918.6816 463.06304 934.41024 351.03232 892.06784 259.10784zM803.75296 499.70176c-61.96224 61.93152-155.12064 72.2688-228.49536 32.74752l-84.59264 84.5824c-0.01536 0.01024-0.01536 0.01024-0.0256 0.0256l-36.61824 36.60288-2.51904 2.51904-195.69664 195.59936c-21.61664 21.61664-56.66304 21.61664-78.2848 0-21.61664-21.60128-21.61664-56.63232 0-78.22848l198.21568-198.1184 121.2416-121.2416c-39.49568-73.32864-29.15328-166.41024 32.78848-228.3264 37.15584-37.12512 85.62176-54.76352 134.29248-55.3728-50.9952 54.21056-50.31424 139.31008 2.69824 192.30208 53.00224 52.98176 138.14272 53.66272 192.37376 2.7136C858.55232 414.14144 840.89344 462.57152 803.75296 499.70176z" /></svg>