<?xml version="1.0" standalone="no"?><!DOCTYPE svg PUBLIC "-//W3C//DTD SVG 1.1//EN" "http://www.w3.org/Graphics/SVG/1.1/DTD/svg11.dtd"><svg class="icon" width="200px" height="200.00px" viewBox="0 0 1024 1024" version="1.1" xmlns="http://www.w3.org/2000/svg"><path fill="#ffffff" d="M408.577024 129.287168 201.081856 129.287168c-48.407552 0-87.78752 39.384064-87.78752 87.783424l0 590.553088c0 48.379904 39.379968 87.784448 87.78752 87.784448l207.496192 0c48.408576 0 87.788544-39.40352 87.788544-87.784448L496.366592 217.070592C496.366592 168.674304 456.986624 129.287168 408.577024 129.287168L408.577024 129.287168zM448.48128 807.62368c0 22.007808-17.898496 39.90016-39.904256 39.90016L201.081856 847.52384c-22.003712 0-39.908352-17.892352-39.908352-39.90016L161.173504 217.070592c0-22.007808 17.903616-39.903232 39.908352-39.903232l207.496192 0c22.004736 0 39.904256 17.895424 39.904256 39.903232L448.482304 807.62368 448.48128 807.62368zM823.574528 129.287168 616.073216 129.287168c-48.403456 0-87.783424 39.384064-87.783424 87.783424l0 590.553088c0 48.379904 39.379968 87.784448 87.783424 87.784448l207.501312 0c48.403456 0 87.783424-39.40352 87.783424-87.784448L911.357952 217.070592C911.357952 168.674304 871.977984 129.287168 823.574528 129.287168L823.574528 129.287168zM863.474688 807.62368c0 22.007808-17.900544 39.90016-39.90016 39.90016L616.073216 847.52384c-21.998592 0-39.90016-17.892352-39.90016-39.90016L576.173056 595.463168l287.300608 0L863.473664 807.62368 863.474688 807.62368 863.474688 807.62368zM863.474688 547.581952 576.173056 547.581952 576.173056 217.070592c0-22.007808 17.900544-39.903232 39.90016-39.903232l207.501312 0c21.998592 0 39.90016 17.895424 39.90016 39.903232l0 279.312384L863.474688 547.581952zM193.098752 209.091584l223.459328 0 0 47.879168L193.098752 256.970752 193.098752 209.091584 193.098752 209.091584zM193.098752 288.894976l223.459328 0 0 47.880192L193.098752 336.775168 193.098752 288.894976 193.098752 288.894976zM193.098752 368.694272l223.459328 0 0 47.884288L193.098752 416.57856 193.098752 368.694272 193.098752 368.694272zM641.350656 442.391552c-15.4368 0-27.928576 12.515328-27.928576 27.931648 0 15.41632 12.491776 27.927552 27.928576 27.927552 15.415296 0 27.930624-12.515328 27.930624-27.927552C669.28128 454.90688 656.765952 442.391552 641.350656 442.391552L641.350656 442.391552zM641.350656 691.238912c15.415296 0 27.930624-12.535808 27.930624-27.931648 0-15.43168-12.516352-27.933696-27.930624-27.933696-15.4368 0-27.928576 12.502016-27.928576 27.933696C613.421056 678.703104 625.913856 691.238912 641.350656 691.238912L641.350656 691.238912zM641.350656 691.238912" /></svg>