<?xml version="1.0" standalone="no"?><!DOCTYPE svg PUBLIC "-//W3C//DTD SVG 1.1//EN" "http://www.w3.org/Graphics/SVG/1.1/DTD/svg11.dtd"><svg class="icon" width="200px" height="200.00px" viewBox="0 0 1024 1024" version="1.1" xmlns="http://www.w3.org/2000/svg"><path fill="#ffffff" d="M681.859108 619.778702c0 0-19.460214-1.442862-18.877953-18.876929L662.981155 374.412388c0.033769-17.927301-15.355733-37.718043-37.737486-37.753859l-6.336312 0c3.891633-6.479575 6.320962-13.030781 6.336312-18.876929 0 0-12.660344-307.950697-94.366228-245.331521-56.526411 43.282782-125.537158 75.508741-132.140553 132.103714l0 113.226784c0 5.881964 1.567705 12.397355 4.560876 18.876929l-4.560876 0c-22.363334 0-37.719066 19.826558-37.736463 37.753859l0 226.490408c-0.581238 14.262842-18.876929 18.874883-18.876929 18.874883-14.349823 0-18.859533 1.023306-18.859533 18.878976l0 283.084357c0 26.731828 16.306384 38.2123 36.644595 38.2123 20.339234 0 255.669984 0 255.669984 0l0-0.459464c18.246573-0.008186 44.286646-0.029676 44.286646-0.029676 22.363334 0.033769 40.851407-15.039531 40.869826-37.72009L700.735014 638.655631C700.735014 620.835777 681.859108 619.778702 681.859108 619.778702zM455.367677 166.799934c23.173792-20.99108 40.676421-33.422204 75.509764-56.630788 7.342222-7.326872 18.875906 0 18.875906 0s16.832364 26.624381 18.875906 37.753859c2.007727 11.164271 25.552979 152.989393 18.86158 169.858596-6.691399 16.869203-18.86158 18.876929-18.86158 18.876929s-103.366206 0.704035-113.2626 0-18.876929-18.876929-18.876929-18.876929S431.666882 188.283224 455.367677 166.799934zM662.997528 902.865105c0 12.115945-18.875906 18.876929-18.875906 18.876929l-37.735439 0c-0.972141 0-1.889023 0.081864-2.781346 0.199545l-204.867948-0.199545-18.876929 0c0 0-19.194154-0.459464-18.859533-18.876929 0.369414-14.756075 0-245.331521 0-245.331521s0.75827-18.874883 18.859533-18.874883c18.138102 0 18.876929-31.099299 18.876929-18.878976l0-226.488361c0 0 1.197268-18.454304 18.876929-18.876929 4.666276 0 181.656293 0.211824 188.750875 0 19.195178-0.598634 18.297738 20.462031 18.297738 20.462031s0.579191 204.900693 0.579191 224.905306c0 9.29776 7.733125 18.876929 18.877953 18.876929 12.045337 0 18.875906 18.841114 18.875906 18.841114L662.997528 902.865105 662.997528 902.865105zM410.429185 675.141614c-9.895371 0-17.926278 8.032954-17.926278 17.929348l0 132.526339c0 9.895371 8.029884 17.926278 17.926278 17.926278s17.927301-8.030907 17.927301-17.926278l0-132.528386C428.355463 683.171498 420.326603 675.141614 410.429185 675.141614z" /></svg>