<?xml version="1.0" standalone="no"?><!DOCTYPE svg PUBLIC "-//W3C//DTD SVG 1.1//EN" "http://www.w3.org/Graphics/SVG/1.1/DTD/svg11.dtd"><svg class="icon" width="200px" height="200.00px" viewBox="0 0 1024 1024" version="1.1" xmlns="http://www.w3.org/2000/svg"><path fill="#ffffff" d="M811.872 412.608l-91.04-151.584c-5.92-9.888-19.136-17.344-30.72-17.344L306.304 243.68c-11.584 0-24.8 7.456-30.72 17.344l-91.04 151.584c-1.952 3.232-3.744 6.304-5.12 8.608-0.672 1.184-1.216 2.144-1.6 2.816-0.864 1.536-3.456 6.176-0.448 11.392l3.072 5.344 1.248 0c1.44 1.76 3.392 4.128 5.76 7.072l293.696 363.296c1.824 2.272 4 4.128 6.4 5.536l2.88 1.408c2.528 1.024 5.216 1.568 7.968 1.568 2.752 0 5.44-0.576 7.968-1.568l2.88-1.408c2.368-1.376 4.544-3.264 6.4-5.536l293.728-363.296C817.152 438.304 818.208 423.168 811.872 412.608zM687.968 264.896l-66.304 144.096-102.592-144.096L687.968 264.896zM603.04 419.584 393.6 419.584l104.736-147.04L603.04 419.584zM477.6 264.896l-102.592 144.096L308.704 264.896 477.6 264.896zM290.816 277.088l65.536 142.496L205.248 419.584 290.816 277.088zM209.184 440.8l156.032 0L470.4 763.904 209.184 440.8zM526.432 763.968l67.488-207.68-22.464 0-73.024 224.768-110.784-340.256 195.648 0 25.696 0 22.464 0 31.936 0 124.32 0L526.432 763.968zM640.32 419.584l65.44-142.272 85.408 142.272L640.32 419.584z" /></svg>