<?xml version="1.0" standalone="no"?><!DOCTYPE svg PUBLIC "-//W3C//DTD SVG 1.1//EN" "http://www.w3.org/Graphics/SVG/1.1/DTD/svg11.dtd"><svg class="icon" width="200px" height="200.00px" viewBox="0 0 1024 1024" version="1.1" xmlns="http://www.w3.org/2000/svg"><path fill="#ffffff" d="M817.622 739.046l-564.063 0 72.397-157.261-102.292-332.598-80.275 0 0-37.172 107.714 0 114.574 372.411-54.089 117.446 506.033 0zM767.288 623.359l-431.458 0 0-37.172 405.642 0 85.513-228.545-52.606 0 0-37.172 106.231 0zM410.914 873.78c-25.214 0-45.7-20.486-45.7-45.7s20.486-45.699 45.7-45.699c25.214 0 45.699 20.486 45.699 45.699 0.046 25.214-20.485 45.699-45.699 45.699zM410.914 819.553c-4.681 0-8.528 3.847-8.528 8.528 0 4.728 3.847 8.528 8.528 8.528 4.727 0 8.528-3.847 8.528-8.528 0.046-4.681-3.801-8.528-8.528-8.528zM690.072 873.78c-25.214 0-45.7-20.486-45.7-45.7s20.486-45.699 45.7-45.699c25.213 0 45.746 20.486 45.746 45.699 0 25.214-20.533 45.699-45.746 45.699zM690.072 819.553c-4.681 0-8.528 3.847-8.528 8.528 0 4.728 3.801 8.528 8.528 8.528 4.728 0 8.574-3.847 8.574-8.528 0-4.681-3.847-8.528-8.574-8.528zM500.953 529.923l43.382-37.681c0 0 7.926-8.018 9.316-26.79 1.668-22.062-16.87-35.132-22.572-38.609-19.792-12.051-16.176-37.913-13.765-55.016 0.416-3.152 1.02-7.555 1.206-10.243-4.218-4.172-15.063-5.469-24.008-6.489-8.899-1.066-17.288-2.086-24.565-5.702l-3.893-1.853c-15.852-7.417-48.804-22.803-59.79-68.271-3.986-16.685-8.343-20.208-8.343-20.208 0.047 0.047 2.828 2.131 7.926-0.324l-15.852-33.649c5.562-2.642 14.925-3.847 24.38 0.696 13.117 6.257 22.248 20.903 28.041 44.725 2.689 11.215 7.37 19.373 12.838 25.492-0.232-0.88-0.371-1.808-0.556-2.736-4.867-27.021 8.668-41.714 22.943-46.441 11.587-3.893 30.591-2.595 38.377 9.084 11.032-20.255 32.258-37.357 38.516-42.084 3.105-2.874 4.589-5.423 4.495-7.647-0.186-5.654-7.741-13.58-10.845-15.944l22.387-29.663c2.55 1.9 24.658 19.282 25.63 44.123 0.371 9.64-2.364 23.962-17.473 37.403l-1.159 0.927c-10.752 8.064-27.949 24.751-30.775 34.9-5.145 18.354-18.354 21.506-23.776 22.062-13.488 1.159-25.028-8.111-32.12-15.944 0.093 0.742 0.232 1.623 0.416 2.642 0.834 4.542 1.668 7.138 2.179 8.436 0.787 0.093 1.576 0.186 2.41 0.278 5.516 0.602 13.858 1.529 22.988 6.628 5.562 3.105 10.103 6.071 14.182 8.713 9.038 5.887 12.189 7.741 18.91 8.018 46.627 1.761 82.547 11.587 106.834 29.153 18.493 13.394 28.736 27.855 31.331 44.263 3.754 23.962-10.382 46.534-21.321 61.365-23.916 32.491-55.758 66.371-110.634 71.284l-57.241 5.098zM552.632 396.486c12.143 7.972 41.157 31.378 38.098 71.748-0.278 3.429-0.649 6.72-1.205 9.826 19.189-9.78 34.252-26.094 49.314-46.534 10.799-14.692 15.712-26.002 14.507-33.602-0.927-6.118-6.257-12.607-16.315-19.883-12.143-8.76-36.012-19.512-81.482-21.923 0.602 6.304-0.371 13.255-1.437 20.857-0.742 5.469-2.131 15.11-1.484 19.512zM542.898 559.678c-111.515 0-202.173-90.704-202.173-202.173s90.657-202.173 202.173-202.173 202.173 90.657 202.173 202.173-90.657 202.173-202.173 202.173zM542.898 192.507c-90.983 0-165.001 74.018-165.001 165.001s74.018 165.001 165.001 165.001 165.001-74.018 165.001-165.001-74.018-165.001-165.001-165.001z" /></svg>