<?xml version="1.0" standalone="no"?><!DOCTYPE svg PUBLIC "-//W3C//DTD SVG 1.1//EN" "http://www.w3.org/Graphics/SVG/1.1/DTD/svg11.dtd"><svg class="icon" width="200px" height="200.00px" viewBox="0 0 1024 1024" version="1.1" xmlns="http://www.w3.org/2000/svg"><path fill="#ffffff" d="M704 64c38.4 0 64 25.6 64 64l0 768c0 38.4-25.6 64-64 64L320 960c-38.4 0-64-25.6-64-64L256 128c0-38.4 25.6-64 64-64L704 64M704 0 320 0C249.6 0 192 57.6 192 128l0 768c0 70.4 57.6 128 128 128l384 0c70.4 0 128-57.6 128-128L832 128C832 57.6 774.4 0 704 0L704 0zM736 832l-448 0L288 96l448 0L736 832zM352 768l320 0L672 160l-320 0L352 768zM512 896m-51.2 0a0.8 0.8 0 1 0 102.4 0 0.8 0.8 0 1 0-102.4 0Z" /></svg>