<?xml version="1.0" standalone="no"?><!DOCTYPE svg PUBLIC "-//W3C//DTD SVG 1.1//EN" "http://www.w3.org/Graphics/SVG/1.1/DTD/svg11.dtd"><svg t="1491706711248" class="icon" style="" viewBox="0 0 1024 1024" version="1.1" xmlns="http://www.w3.org/2000/svg" p-id="2826" xmlns:xlink="http://www.w3.org/1999/xlink" width="200" height="200"><defs><style type="text/css"></style></defs><path d="M471.53152 804.33152c3.87072 4.34176 9.44128 6.81984 15.2576 6.81984l0.02048 0c5.81632 0 11.38688-2.49856 15.2576-6.84032l270.00832-302.51008c27.17696-33.1776 42.14784-74.8544 42.14784-117.39136 0-103.48544-85.87264-187.65824-191.44704-187.65824-51.97824 0-100.43392 20.0704-136.23296 55.808-35.79904-35.71712-84.25472-55.808-136.23296-55.808-105.55392 0-191.44704 84.1728-191.44704 187.65824 0 42.55744 14.97088 84.2752 42.88512 118.31296C204.36992 505.91744 408.92416 734.39232 471.53152 804.33152zM350.28992 237.71136c47.53408 0 91.29984 21.25824 120.05376 58.28608 7.76192 9.99424 24.59648 9.99424 32.3584 0 28.75392-37.04832 72.51968-58.28608 120.05376-58.28608 82.98496 0 150.48704 65.80224 150.48704 146.69824 0 33.5872-11.3664 65.20832-32.29696 90.78784L486.78912 759.95136c-93.71648-104.67328-249.1392-278.3232-254.0544-284.03712-21.52448-26.27584-32.89088-57.91744-32.89088-91.50464C199.82336 303.53408 267.32544 237.71136 350.28992 237.71136z" p-id="2827" fill="#d81e06"></path></svg>