<?xml version="1.0" standalone="no"?><!DOCTYPE svg PUBLIC "-//W3C//DTD SVG 1.1//EN" "http://www.w3.org/Graphics/SVG/1.1/DTD/svg11.dtd"><svg t="1492325622824" class="icon" style="" viewBox="0 0 1024 1024" version="1.1" xmlns="http://www.w3.org/2000/svg" p-id="11634" xmlns:xlink="http://www.w3.org/1999/xlink" width="200" height="200"><defs><style type="text/css"></style></defs><path d="M797.056 605.065216c-63.043584 0-117.6576 36.854784-143.392768 90.159104l-268.06784-53.023744c-1.764352-15.105024-5.615616-29.572096-11.316224-43.086848l178.244608-193.398784c19.853312 8.921088 41.82016 13.92128 64.95744 13.92128 87.73632 0 159.11424-71.385088 159.11424-159.127552 0-87.729152-71.37792-159.099904-159.11424-159.099904-87.743488 0-159.11424 71.370752-159.11424 159.099904 0 33.241088 10.259456 64.123904 27.751424 89.675776L319.490048 530.983936c-25.972736-18.445312-57.673728-29.333504-91.882496-29.333504-87.73632 0-159.121408 71.370752-159.121408 159.11424 0 87.729152 71.385088 159.11424 159.121408 159.11424 63.85664 0 119.003136-37.827584 144.31744-92.23168l266.835968 52.77184c8.165376 80.131072 76.054528 142.86848 158.294016 142.86848 87.737344 0 159.107072-71.385088 159.107072-159.121408S884.79232 605.065216 797.056 605.065216zM617.480192 187.875328c40.047616 0 72.644608 32.58368 72.644608 72.631296 0 40.054784-32.596992 72.645632-72.644608 72.645632-40.054784 0-72.645632-32.590848-72.645632-72.645632C544.83456 220.459008 577.425408 187.875328 617.480192 187.875328zM227.607552 733.394944c-40.054784 0-72.659968-32.589824-72.659968-72.631296 0-40.061952 32.60416-72.644608 72.659968-72.644608 40.047616 0 72.638464 32.582656 72.638464 72.644608C300.246016 700.80512 267.656192 733.394944 227.607552 733.394944zM797.056 836.816896c-40.047616 0-72.651776-32.596992-72.651776-72.651776s32.60416-72.644608 72.651776-72.644608c40.054784 0 72.639488 32.589824 72.639488 72.644608S837.110784 836.816896 797.056 836.816896z" p-id="11635" fill="#1296db"></path></svg>