<?xml version="1.0" standalone="no"?><!DOCTYPE svg PUBLIC "-//W3C//DTD SVG 1.1//EN" "http://www.w3.org/Graphics/SVG/1.1/DTD/svg11.dtd"><svg t="1492325020127" class="icon" style="" viewBox="0 0 1025 1024" version="1.1" xmlns="http://www.w3.org/2000/svg" p-id="5314" xmlns:xlink="http://www.w3.org/1999/xlink" width="200.1953125" height="200"><defs><style type="text/css"></style></defs><path d="M512.269 0C229.237 0 0 229.237 0 511.999c0 282.759 229.237 511.999 512.269 511.999 282.759 0 511.999-229.239 511.999-511.999C1024.267 229.237 795.028 0 512.269 0zM512.269 959.927c-247.619 0-448.201-200.579-448.201-447.929 0-247.352 200.582-447.934 448.201-447.934 247.349 0 447.929 200.582 447.929 447.934C960.198 759.348 759.618 959.927 512.269 959.927z" p-id="5315" fill="#d81e06"></path><path d="M601.353 198.037c-8.58-2.715-17.425-5.252-26.435-7.522-149.155-36.612-303.319 37.247-331.984 158.965-25.185 106.942 43.405 209.169 161.48 257.299 3.127 12.955-0.265 27.725-29.747 30.445 0 0-35.362-1.265-54.032 13.595 0 0-30.9 17.765-37.06 68.065 0 0-3.127 27.185 15.447 29.095 0 0 18.58 4.44 22.33-20.305 0 0 2.323-28.1 16.072-36.07 0 0 29.742-13.96 39.66 11.41 0 0 6.52 15.87-8.937 44.965 0 0-6.695 13.31-30.722 35.61 0 0-22.95 18.21 3.127 41.42 0 0 23.582 25.195 52.075-10.96 0 0 22.595-29.46 30.992-70.97 0 0 7.413-37.975 30.987-33.26 0 0 30.372 0.365 25.457 35.8 0 0-1.882 32.26-29.117 58.91l-19.827 20.57c0 0-28.49 26.28 1.875 49.76 0 0 27.867 22.835 56.445-24.655 0 0 15.092-24.105 23.58-68.61 0 0 14.285-60.535 53.945-36.52 0 0 34.115 20.575 0 60.81l-14.915 19.305c0 0-14.65 23.385 7.415 37.705 0 0 28.22 19.485 50.19-26.825 0 0 26.52-42.15 19.205-95.435 0 0-4.38-38.615-43.405-53.2 0 0-50.545-24.74-23.495-56.185 109.775-10.61 204.534-77.86 226.329-170.565 20.54-87.277-21.26-169.115-101.285-222.134-7.585-21.842-5.895-46.407-5.895-46.407-5.715-68.78-94.31-49.752-94.31-49.752C637.523 163.235 620.828 184.802 601.353 198.037zM669.143 463.759c9.465 67.165-78.06 81.655-78.06 81.655-145.762 20.85-225.699-74.672-225.699-74.672-45.905-45.59-26.077-92.442-26.077-92.442 15.357-33.17 87.437-8.247 87.437-8.247 109.765 34.165 181.67 41.145 181.67 41.145C647.968 414.462 665.568 446.182 669.143 463.759zM643.148 346.124c2.95 6.525 0.185 14.32-6.25 17.315-1.785 0.815-3.57 1.172-5.365 1.172-4.815 0-9.465-2.807-11.6-7.612-18.305-40.6-43.315-65.882-74.405-75.222-52.61-15.765-106.822 18.85-107.357 19.217-5.983 3.8-13.837 2.08-17.68-3.99-3.75-6.072-2.055-14.142 3.93-18.032 2.585-1.723 64.215-41.42 128.077-22.3C591.083 268.187 621.533 298.277 643.148 346.124z" p-id="5316" fill="#d81e06"></path></svg>