<?xml version="1.0" standalone="no"?><!DOCTYPE svg PUBLIC "-//W3C//DTD SVG 1.1//EN" "http://www.w3.org/Graphics/SVG/1.1/DTD/svg11.dtd"><svg class="icon" width="200px" height="200.00px" viewBox="0 0 1024 1024" version="1.1" xmlns="http://www.w3.org/2000/svg"><path d="M715.482 236.274c-82.189 0-157.085 37.117-206.131 94.781-47.722-57.001-121.956-94.781-204.144-94.781-147.805 0-267.773 119.967-267.773 267.773 0 147.805 119.967 267.773 267.773 267.773 82.189 0 155.097-37.78 203.482-94.781 50.373 57.001 123.943 94.781 206.131 94.781 146.479 0 267.11-119.967 267.11-267.773 0.662-148.468-119.967-267.773-266.447-267.773z" fill="#FFFFFF" /><path d="M260.134 409.927v-169.678c-125.933 21.21-222.702 131.235-222.702 263.796 0 66.281 23.861 126.595 63.629 172.992 93.456-45.071 159.073-147.805 159.073-267.11zM305.204 571.652c-16.57 68.932-66.281 127.921-128.583 167.027 37.006 20.854 81.244 33.14 128.353 33.14 0.081 0 0.163 0 0.244 0 0.055 0 0.139 0 0.22 0 47.107 0 91.345-12.287 129.685-33.828-63.637-38.416-113.346-97.406-129.918-166.337zM509.348 331.055c-39.769-47.058-96.106-80.198-159.737-90.804v168.352c0 119.967 65.617 223.365 159.737 269.098-39.769-46.397-63.629-106.711-63.629-172.992s23.861-126.595 63.629-173.654zM509.348 331.055c39.769 46.397 64.955 106.711 64.955 172.992 0 65.617-25.85 126.595-64.955 172.992 93.456-45.071 161.060-147.805 161.725-267.773v-169.014c-64.292 10.605-121.956 43.745-161.725 90.804z" fill="#005EAC" /><path d="M445.719 504.046c0 65.617 23.861 125.933 63.629 172.992 39.769-46.397 64.955-106.711 64.955-172.992s-25.85-126.595-64.955-172.992c-39.769 47.058-63.629 107.374-63.629 172.992z" fill="#E83928" /><path d="M759.889 408.603c0 119.967 65.617 223.365 159.737 269.098 39.769-46.397 63.629-106.711 63.629-172.992 0-132.561-96.106-242.587-222.702-263.796v167.69zM715.482 571.652c-16.57 68.932-66.281 127.921-128.583 167.027 37.006 20.854 81.244 33.14 128.353 33.14 0.081 0 0.163 0 0.244 0 0.055 0 0.139 0 0.22 0 47.107 0 91.345-12.287 129.685-33.828-63.637-38.416-113.346-97.406-129.918-166.337z" fill="#005EAC" /></svg>