<?xml version="1.0" standalone="no"?><!DOCTYPE svg PUBLIC "-//W3C//DTD SVG 1.1//EN" "http://www.w3.org/Graphics/SVG/1.1/DTD/svg11.dtd"><svg class="icon" width="200px" height="200.00px" viewBox="0 0 1024 1024" version="1.1" xmlns="http://www.w3.org/2000/svg"><path fill="#ffffff" d="M512 909.329l-11.312-7.069c-268.657-178.162-419.953-378.946-412.882-550.039 2.829-86.253 46.661-155.538 121.602-197.956 156.953-87.668 263.001 11.312 302.592 59.387 39.591-49.49 145.639-148.468 302.592-59.387v0c74.941 42.42 118.773 113.118 121.602 197.956 7.069 171.091-144.226 371.877-412.882 551.453l-11.312 5.655zM332.425 158.505c-29.694 0-65.043 8.484-103.22 29.694-62.215 35.349-98.979 93.323-101.806 165.437-2.829 73.527 29.694 270.069 383.188 509.033 354.909-238.963 386.017-435.506 383.188-509.033-2.829-70.7-38.177-130.086-101.806-165.437-168.263-93.323-261.585 62.215-264.415 69.285l-15.553 31.108-16.967-31.108c-4.242-4.242-60.801-98.979-162.608-98.979z" /></svg>