<?xml version="1.0" standalone="no"?><!DOCTYPE svg PUBLIC "-//W3C//DTD SVG 1.1//EN" "http://www.w3.org/Graphics/SVG/1.1/DTD/svg11.dtd"><svg class="icon" width="200px" height="200.00px" viewBox="0 0 1024 1024" version="1.1" xmlns="http://www.w3.org/2000/svg"><path fill="#ffffff" d="M544.92647 1012.995164M544.92647 15.164664M697.497517 704.309511l-3.015325-0.088039c-22.890059-1.232542-35.369543-10.498614-43.64518-16.617303l-1.782783-1.34259-135.755658-110.488555-130.165202 110.664632c-7.835443 6.03065-20.975218 16.155099-44.657625 17.497689l-2.883267 0.066029c-19.896744 0-40.453778-11.070865-51.216507-27.5341-9.838323-14.284277-11.246943-28.238409-11.40101-37.416443 0.066029-11.533068 2.156948-19.940763 4.181838-26.785771l52.206943-171.103192-132.93842-87.576486c-5.524428-3.697625-12.567523-8.847888-19.50057-16.969457-4.269876-5.216292-15.890983-19.412531-16.353186-42.544696C160.285438 279.456808 165.743837 264.116067 175.185986 253.023192c6.250747-7.615347 14.262268-13.690016 24.100591-18.091951 13.535948-5.722515 24.408726-6.602902 34.26906-6.73496l165.248619-0.110048 47.981085-172.489801c2.178958-7.681376 5.238302-16.727351 11.907233-26.653713C470.819903 10.982826 489.968318 0.462203 511.251671 0c22.735991 0.506222 41.818377 11.004836 53.901687 28.788651 6.646921 9.838323 9.750285 18.862289 11.951252 26.411607l48.135153 172.907985 164.742397 0.088039c6.206728 0.02201 14.460355 0.396174 24.18863 2.971306 9.794304 2.905277 23.044127 8.05554 34.819301 22.009672 9.354111 11.136894 14.74648 26.433616 14.460355 40.893971-0.462203 22.934078-11.973262 37.152327-15.758925 41.818377-7.549318 8.847888-14.592413 14.020161-19.962773 17.585728l-131.067598 86.498012 58.171564 170.662998c2.509103 7.725395 4.996196 16.79338 5.040215 28.414487-0.066029 5.964621-0.264116 22.317808-12.369436 39.265255C737.158947 693.63482 716.888039 704.309511 697.497517 704.309511zM512.946416 502.854981c11.026846 0 21.613498 3.785664 29.162816 10.388565l148.477249 120.745062c0.770339 0.594261 1.386609 1.056464 1.98087 1.452638-0.242106-1.012445-0.572251-2.178958-1.056464-3.675615l-62.837614-184.264976c-1.386609-3.961741-2.178958-8.495733-2.266996-13.271832-0.418184-14.592413 7.461279-33.322644 21.635508-42.148522l142.776744-94.201397c1.474648-0.990435 2.619151-1.826803 3.565567-2.66317-1.386609-0.220097-2.795228-0.286126-4.556002-0.308135l-178.652509-0.110048c-0.02201 0-0.02201 0-0.02201 0-9.926362 0-20.79914-3.983751-29.294874-10.652681-8.517743-6.272757-15.406771-16.375196-17.629747-26.411607L512.880387 73.402257c-0.330145-1.144503-0.616271-2.090919-0.902397-2.927286-0.264116 0.880387-0.572251 1.892832-0.924406 3.125373l-51.744739 185.871682c-1.760774 8.253627-8.671811 18.378076-18.003912 25.289113-7.681376 6.07467-18.554154 10.05842-28.304438 10.05842L234.03985 294.929608c-1.958861 0.02201-3.34547 0.088039-4.467963 0.242106 1.012445 0.902397 2.178958 1.760774 3.719635 2.795228l143.062869 94.289436c14.878538 9.023966 23.044127 28.568555 22.515895 43.777238-0.088039 4.313896-0.748329 8.473724-1.958861 12.325416l-55.904567 183.208512c-0.462203 1.518667-0.770339 2.729199-0.968426 3.807673 0.616271-0.462203 1.3646-1.034455 2.311016-1.782783l2.289006-1.716754 139.365244-118.764191C490.452531 507.058829 501.677464 502.854981 512.946416 502.854981z" /></svg>