<?xml version="1.0" standalone="no"?><!DOCTYPE svg PUBLIC "-//W3C//DTD SVG 1.1//EN" "http://www.w3.org/Graphics/SVG/1.1/DTD/svg11.dtd"><svg class="icon" width="200px" height="200.00px" viewBox="0 0 1024 1024" version="1.1" xmlns="http://www.w3.org/2000/svg"><path fill="#ffffff" d="M853.0688 531.1232l-326.98368 0.66048 0.65024 195.8912 325.4528-0.63488c15.44192-0.03072 28.16 9.9584 28.40064 22.31808s-12.07808 22.39488-27.52 22.4256l-326.18496 0.65536 0.512 150.85056c0.03072 15.7696-9.9584 28.7488-22.31808 28.99968s-22.39488-12.33408-22.4256-28.10368l-0.512-151.6544-300.07808 0.5888c-15.44192 0.03072-28.16-9.9584-28.40064-22.31808s12.07808-22.39488 27.52-22.4256l300.80512-0.60416-0.64512-195.89632-299.27936 0.60416c-15.44192 0.03072-28.16-9.9584-28.40064-22.31808s12.07808-22.39488 27.52-22.4256l299.42784-0.60416-300.98432-351.68256a22.91712 22.91712 0 0 1 2.80576-32.59392 23.65952 23.65952 0 0 1 33.02912 2.78528l291.29216 340.35712 286.42816-340.35712a23.65952 23.65952 0 0 1 33.02912-2.78528 22.92224 22.92224 0 0 1 2.80576 32.59392l-295.86432 351.57504L852.18816 486.4c15.44192-0.03072 28.16 9.9584 28.40064 22.31296s-12.07808 22.37952-27.52 22.41024z"  /></svg>