<?xml version="1.0" standalone="no"?><!DOCTYPE svg PUBLIC "-//W3C//DTD SVG 1.1//EN" "http://www.w3.org/Graphics/SVG/1.1/DTD/svg11.dtd"><svg class="icon" width="200px" height="200.00px" viewBox="0 0 1024 1024" version="1.1" xmlns="http://www.w3.org/2000/svg"><path fill="#ffffff" d="M187.349587 412.789167M585.747364 615.37913l-21.735476 0c-8.340244 0-15.161316 2.658856-15.161316 11.006398l0 15.140638c0 8.375517 6.819855 15.145504 15.161316 15.145504l37.429536 0c0 0 1.552013 0.074195 0 0l0 0c8.741627 0 20.424293-4.331283 23.849425-16.303432l79.209816-318.75617 15.02144 0c8.385247 0 14.461937-4.705907 14.461937-13.074126l0-15.149153c0-8.359705-6.763905-15.118745-15.14672-15.118745l0 0-32.262647 0 0 0c-8.663783-0.707893-19.598418 4.396964-22.157536 15.479989M627.264921 443.076525 612.264158 503.61232 627.264921 443.076525ZM626.302819 685.264707c-33.437603 0-60.574716 27.079946-60.574716 60.519982 0 33.455848 27.137113 60.561337 60.574716 60.561337 33.407196 0 60.533362-27.105489 60.533362-60.561337C686.83618 712.344653 659.710014 685.264707 626.302819 685.264707L626.302819 685.264707zM626.302819 685.264707M209.430496 440.124539l436.779684 0c11.587794 0 20.977714-9.383839 20.977714-20.974065 0-11.60239-9.38992-20.98258-20.977714-20.98258L209.430496 398.167894c-11.604822 0-20.975282 9.38019-20.975282 20.98258C188.45643 430.7407 197.826889 440.124539 209.430496 440.124539L209.430496 440.124539zM254.423053 546.364432l354.661668 0c11.586578 0 20.978931-9.385055 20.978931-20.974065 0-11.601174-9.392353-20.98258-20.978931-20.98258L254.423053 504.407787c-11.604822 0-20.975282 9.381406-20.975282 20.98258C233.447771 536.979377 242.819447 546.364432 254.423053 546.364432L254.423053 546.364432zM302.153526 656.030674l301.28508 0c11.587794 0 20.977714-9.383839 20.977714-20.975282 0-11.601174-9.38992-20.98258-20.977714-20.98258L302.153526 614.072812c-11.604822 0-20.975282 9.381406-20.975282 20.98258C281.17946 646.646835 290.54992 656.030674 302.153526 656.030674L302.153526 656.030674zM315.839456 718.643927c-19.327181 0-34.968939 15.649056-34.968939 34.967723 0 19.306503 15.641758 34.960425 34.968939 34.960425 19.301638 0 34.956776-15.653922 34.956776-34.960425C350.795016 734.292984 335.141094 718.643927 315.839456 718.643927L315.839456 718.643927zM719.423583 320.879849l112.413888 0c11.587794 0 20.977714-9.385055 20.977714-20.975282 0-11.60239-9.38992-20.98258-20.977714-20.98258l-112.413888 0c-11.604822 0-20.975282 9.38019-20.975282 20.98258 0 11.590227 13.476725 20.975282 25.079115 20.975282L719.423583 320.879849z" /></svg>