<?xml version="1.0" standalone="no"?><!DOCTYPE svg PUBLIC "-//W3C//DTD SVG 1.1//EN" "http://www.w3.org/Graphics/SVG/1.1/DTD/svg11.dtd"><svg t="1491810698858" class="icon" style="" viewBox="0 0 1024 1024" version="1.1" xmlns="http://www.w3.org/2000/svg" p-id="2362" xmlns:xlink="http://www.w3.org/1999/xlink" width="200" height="200"><defs><style type="text/css"></style></defs><path d="M321.35345 638.862339h-94.188172v272.585236h-70.448492V638.862339H62.748624v-57.465806h258.604826v57.465806z m24.51944 111.940489c0-51.809993 15.087627-93.857645 45.263903-126.251426 30.286794-32.506345 70.115917-48.704259 119.705336-48.704258 47.15088 0 85.093027 15.642259 113.937982 47.039339 28.734438 31.396057 43.155892 71.779813 43.155892 121.03768 0 51.477418-15.087627 93.190449-44.931328 125.142162-29.953196 32.06223-69.116147 48.149627-117.486808 48.149627-47.372937 0-85.758176-15.532765-115.269304-46.596248-29.620621-31.063483-44.375673-71.002101-44.375673-119.816876z m73.997318-3.882424c0 32.061207 7.655354 58.354036 23.187095 78.767971 15.532765 20.413935 36.722366 30.508851 63.681368 30.508851 27.513634 0 49.03581-9.652847 64.456011-29.28907 15.310707-19.525706 22.966061-45.818535 22.966061-78.767971 0-34.281781-7.43432-61.46284-22.411429-81.430614-14.864546-19.971867-35.944654-29.955242-63.125713-29.955242-27.402093 0-49.146327 10.207479-65.011666 30.730908-15.865339 20.413935-23.741727 46.928822-23.741727 79.435167z m374.09721 49.479925v115.047246h-70.226434V581.396533h113.492843c82.09781 0 123.145691 34.834366 123.145692 104.395652 0 33.836643-12.314467 60.907185-37.164435 81.32112-24.740474 20.301372-55.69344 30.065759-92.970438 29.288047h-36.277228v-0.001023z m0-160.533207V742.483348h30.507828c41.380456 0 62.016449-17.97335 62.016449-53.918003 0-35.057447-20.413935-52.697199-61.3513-52.6972h-31.172977v-0.001023zM577.740772 148.443867c-25.738198-25.517163-47.149856-45.208645-60.352553-45.208644h-9.874905c-13.202697 0-34.614355 19.691481-60.352553 45.208644L277.753443 344.478635c-33.282011 33.392528-30.176276 92.5253 33.060977 92.5253h403.273716c63.125713 0 66.344011-59.132772 33.060977-92.5253l-169.408341-196.034768z" fill="#ffffff" p-id="2363"></path></svg>