<?xml version="1.0" standalone="no"?><!DOCTYPE svg PUBLIC "-//W3C//DTD SVG 1.1//EN" "http://www.w3.org/Graphics/SVG/1.1/DTD/svg11.dtd"><svg class="icon" width="200px" height="200.00px" viewBox="0 0 1024 1024" version="1.1" xmlns="http://www.w3.org/2000/svg"><path d="M168.79 512c0 0 0 0 0 0 0 189.548 153.661 343.21 343.21 343.21 189.548 0 343.21-153.661 343.21-343.21 0 0 0 0 0 0 0-189.548-153.661-343.21-343.21-343.21-189.548 0-343.21 153.661-343.21 343.21z" fill="#df4d69" /><path d="M735.325 473.439c0.004 0.181 0.006 0.394 0.006 0.604 0 9.611-7.792 17.401-17.401 17.401-0.053 0-0.105 0-0.159 0-36.58-2.059 2.674-51.348-43.028-103.921-35.148-40.441-90.333-24.975-91.98-53.582-0.002-0.123-0.003-0.268-0.003-0.411 0-9.631 7.807-17.439 17.439-17.439 0.090 0 0.178 0 0.267 0.001s61.302-7.574 102.565 42.867c47.636 58.195 32.293 114.478 32.293 114.478zM618.158 516.118s58.804-19.593 56.59 50.006c-5.93 186.706-297.22 156.635-360.79 92.869s-11.826-197.788 99.040-250.039 91.98 50.006 91.98 50.006c147.515-52.98 113.175 57.151 113.175 57.151zM466.055 508.977c-72.279 0-137.95 34.436-137.95 85.727s62.121 85.727 134.416 85.727 134.412-48.737 134.412-100.018-58.596-71.442-130.875-71.442zM448.372 666.143c-50.857-2.383-70.741-34.319-70.741-67.87s33.258-60.725 74.279-60.725 74.279 21.67 74.279 60.725c0 33.533-36.844 69.781-77.82 67.863zM430.642 594.755c-13.627 0-24.669 9.61-24.669 21.451s11.044 21.451 24.669 21.451 24.666-9.61 24.666-21.451-11.044-21.468-24.65-21.468zM473.39 572.998c-5.923 0-10.724 6.449-10.724 14.415s4.803 14.415 10.724 14.415 10.724-6.449 10.724-14.415-4.801-14.432-10.724-14.432zM661.191 477.17c-29.735 0.24-7.366-30.631-28.886-53.916-20.794-22.5-49.521-9.472-49.521-32.149 0-0.021 0-0.048 0-0.075 0-9.783 7.908-17.723 17.681-17.77s43.593 8.476 60.138 28.577c19.107 23.218 18.131 57.342 18.131 57.342 0 0.058 0.001 0.127 0.001 0.198 0 9.735-7.827 17.647-17.535 17.776z" fill="#fff" /></svg>